<?xml version="1.0" encoding="UTF-8"?>
<svg version="1.1" viewBox="0 0 980 1106" width="980" height="1106" xmlns="http://www.w3.org/2000/svg">
<path transform="translate(498,134)" d="m0 0h28l24 4 20 6 20 9 28 14 18 10 28 15 23 13 24 13 23 13 21 13 16 13 6 5 7 8 9 10 12 18 8 16 7 17 6 26 1 7v33l-4 24-9 27-10 20-12 22-17 32-12 22-30 56-16 30-12 22-17 32-13 24-9 14-9 11-14 14h-2l-1 3-14 10-11 7-17 9-18 7-21 5-21 2-26-2-24-4-18-1-15 1-14 4-11 5-9 6-10 10-9 14-18 35-12 22-8 15-8 16-13 25-10 19-12 23-10 19-10 16-7 8-13 8-12 3h-11l-21-5-11-6-23-12-8-6-12-11-7-11-3-9-1-6v-10l4-15 12-23 12-21 15-26 16-29 13-22 14-25 13-23 12-21 5-15 2-9v-13l-3-15-5-12-9-16-12-14-11-12-11-14-7-11-8-16-5-14-4-16-2-13-1-13v-23l3-20 5-19 5-13 13-25 13-23 16-29 13-23 13-24 13-23 10-18 14-25 14-26 12-21 11-20 11-16 4-6h2l2-4 2-3h2l2-4 12-11 15-11 13-8 14-7 21-7 21-4zm1 38-17 3-17 5-16 8-11 7-10 8-12 11-10 13-10 16-14 26-16 29-14 25-10 18-13 23-17 32-13 23-14 25-15 27-10 19-6 17-3 13-1 8v25l3 19 7 19 8 15 9 12 12 13 9 10 11 16 9 17 6 18 3 15 1 8v23l17 10 43 23 6 1 7-6 10-6 18-8 14-4 11-2 14-1 23 1 30 5h27l20-4 16-6 15-8 13-10 12-11 10-12 12-20 11-20 8-16 10-19 16-29 10-19 12-22 10-18 6-12 10-19 16-29 13-24 10-19 7-21 3-16 1-18-2-21-4-16-6-16-7-13-9-11-9-10-4-4h-2v-2l-15-11-20-12-27-15-23-12-23-13-44-24-27-14-21-8-17-4-6-1zm-184 604-5 4-14 26-14 24-13 24-12 21-12 22-12 21-14 25-9 15v6l5 6 25 14 17 9 8 1 5-3 24-46 12-22 12-23 12-22 16-31 8-14 6-11 6-12v-8l-3-3-26-14-16-9z" fill="#0084F9"/>
<path transform="translate(608,275)" d="m0 0h27l17 3 18 6 17 9 14 11 11 11 11 15 8 15 6 18 3 17v20l-3 20-6 17-9 17-10 13-14 14-13 9-10 6-15 6-13 4-13 2h-27l-17-3-15-5-15-8-12-9-12-11-11-14-8-14-6-14-4-16-2-19 1-21 3-14 6-17 8-15 9-12 11-12 11-9 13-8 15-6 19-5zm9 37-14 2-12 4-12 6-10 8-8 8-9 14-6 16-2 10v23l4 17 8 16 8 10 9 9 13 8 13 5 15 3h16l15-3 12-5 12-7 12-11 7-8 8-14 4-12 2-13v-15l-3-15-5-12-9-14-13-13-13-8-12-5-12-3-7-1z" fill="#0084F9"/>
<path transform="translate(498,134)" d="m0 0h28l24 4 20 6 20 9 28 14 18 10 28 15 23 13 24 13 23 13 21 13 16 13 6 5 1 3-4-2-10-7v-2l-10-3-11-5h-2l-1-2-12-5-14-9-9-4-7-3-4-3-8-3-10-6-21-11-16-8-8-6-8-4-9-6-21-10-12-6-10-4-16-5-14-3-17-2h-17l-22 3-20 6-18 8-13 8-8 4-10 8-13 13h-2l-2 4-5 5-12 17-8 13-5 10-10 19-14 24-2 5h-2l-2 6-5 9-8 14-9 17-7 11-9 16-10 18-8 14-11 20-12 22-13 23-10 18-7 15-6 23-2 14-1 25 1 21-1 7 2 10-1 2-3-8-4-16-2-13-1-13v-23l3-20 5-19 5-13 13-25 13-23 16-29 13-23 13-24 13-23 10-18 14-25 14-26 12-21 11-20 11-16 4-6h2l2-4 2-3h2l2-4 12-11 15-11 13-8 14-7 21-7 21-4z" fill="#0194FE"/>
<path transform="translate(494,163)" d="m0 0 28 1 9 1h7l3 1 2 2h4l2 1v2l4-1 2 1v2l5-1 1 3 7 3v-2l2 1-1 2 5 2 5 1 1 3h5l4 3 5 3 3 3 9 4 9 6 6 3 5 2v2l5 2 16 8 13 7 5 3h3l2 2 15 9 11 5 3 1 4 4 9 3 5 4 5 2 2 3 4 1-1 2 4 2 6 5 5 3 7 7v2h2l2 6-4-2-3-2v-2l-4-2-14-10-19-11-25-14-23-12-23-13-44-24-27-14-21-8-17-4-6-1h-24l-17 3-17 5-16 8-11 7-10 8-12 11-13 18-11 19-16 30-10 18-13 23-10 18-13 23-17 32-13 23-14 25-15 27-10 19-6 17-3 13-1 8v25l3 19 5 14-1 5-2 3-2-1-3-6-1-1 1-3-6-9-2-7v-10l-1-2v-29l1-11 1-7 2-9h2l-1-3h2l-1-4 2-5h2l1-7 4-8h2l2-5 3-8 4-1 2-5-2-1 3-2 2-1-1-4 3-2 1-5h2v-2h2l-1-4h2l1-5h3l1-7h3l1-5h2l2-9h3l2-7 2-4h2l-1-4h3l1-5h2l2-7 1-4 3-1 12-23 10-17 11-20 10-18 9-16 6-11 1-4 2-1v-3l3-3 12-23 9-14 9-11 12-13 6-5 2-3h2l5-3 1-2 16-8 9-4 2-2v2h2l2-4h2v2l4-2 2 1v-3l6-1 4 1v-2l9 1z" fill="#0075E0"/>
<path transform="translate(824,355)" d="m0 0 2 2 1 7v33l-4 24-9 27-10 20-12 22-17 32-12 22-30 56-16 30-12 22-17 32-13 24-9 14-9 11-14 14h-2l-1 3-14 10-11 7-17 9-18 7-21 5-21 2-26-2-24-4-18-1-15 1-14 4-11 5-9 6-10 10-9 14-18 35-12 22-8 15-8 16-13 25-10 19-12 23-10 19-10 16-7 8-13 8-12 3h-11l-21-5-11-6-23-12-1-4 6 1 9 5 11 6 4 3 9 3 8 1 14 2 16-5 8-5 7-6 6-8 6-11h2l3-9 3-4 3-7 6-10 9-17 6-12 9-17 10-19 8-15 7-14 11-20 8-16 9-16 4-7 5-7h2v-2h2v-2h2l1-4 13-8 9-4 18-4h27l26 4 15 2h21l19-3 20-6 11-5 16-8 18-12h2v-2l7-5h2l1-4 4-3h2l1-3h2v-2l5-4 8-10 13-23 12-22 30-56 17-32 6-11 9-16 6-11 9-17 6-11 11-21 9-17 12-22 6-12 6-16 5-17 2-12 1-12z" fill="#0160B8"/>
<path transform="translate(816,329)" d="m0 0h3l4 14 2 8-1 37-2 18-5 21-5 13-7 15-11 20-8 16-8 14-8 16-6 10-7 14-6 11-9 16-6 11-13 25-12 22-12 23-24 44-13 22-10 11h-2v2l-8 7-2 1v2l-6 4-3 1v2l-11 7-9 6-17 9-16 6-19 5-14 2h-21l-11-1-30-5h-27l-18 4-16 8-6 4-1 3h-2v2h-2v2h-2l-2 4-5 7-8 16-9 16-8 16-6 10-8 16-10 19-7 14-8 15-6 12-10 19-6 9-3 7-5 10h-2l-1 4-6 10-8 9-8 6-12 5-9 2-13-2-8-1-11-3-5-5-12-6-7-4-4-1v2l-5-2-12-11v-4l-2-2 8 1v2l5 1 4 4v2l12 2 8 4 10 6 11 6 5 2 14 3 9-2 13-6 7-6 9-12 6-10 6-12 3-3 2-6 2-4 3-3 6-14 3-3 4-7-1-2 2-2 2-5h3l-1-4 3-3 3-7 4-4-2-1 3-1 2-4-2-1h3l1-6 3-7h3l1-4v-3l4-6v-3l3-3 2-4h2l-1-5 3-5 3-2-1-2h2l2-7h3l-1-4 1-2 3-1 3-6v-3l1-3 3-2v-3l4-4-2-1 4-1-1-4 1-2h2l3-6 3-2 2-3 7-7 3-2 5-4 14-6 15-3h35l29 4 13 2h9l23-4 15-4 11-4 4-1 2-2 10-5 4-1 5-4 8-5 5-2 5-6 9-6 13-13v-2l5-5 2-4 2-2 3-5 3-4 1-4 3-1 1-6h3l1-5 2-5 2-3h2l1-4 4-9 1-4 3-2 1-3h2l-1-4h3l1-5h2v-6h3l-1-4 1-2h3l2-5 1-7h3l5-13 4-4 4-9 2-1 2-7h2l2-6 11-20v-2h2l2-5 13-25 12-21 8-16 15-28 1-4h2l2-5 8-17 5-14v-3h2l2-10 3-21 1-20-1-18-1-4-3-8z" fill="#0075E0"/>
<path transform="translate(786,355)" d="m0 0 3 2 3 15 1 4v27l-3 19-3 11-4 9-8 16-6 11-9 16-6 11-8 15-4 8-12 22-13 24-10 18-9 16-14 26-3 6-9 16-8 16-6 11-10 18-7 11-7 9-8 10-11 9-14 10-21 10-22 5-6 1h-29l-4-2-12-2-1-1-29-2-25 3-16 4-16 7-11 6-10 8h-9l-3-5-11-6v-2l6 2 9 4 4-1 9-7 15-8 14-5 16-4 17-2h11l21 2 23 4h27l20-4 16-6 15-8 13-10 12-11 11-14 11-19 10-18 8-16 10-19 16-29 10-19 12-22 10-18 6-12 10-19 16-29 13-24 10-19 7-21 3-16 1-18z" fill="#01ACFF"/>
<path transform="translate(498,134)" d="m0 0h28l24 4 20 6 20 9 16 8-1 2-6-2-16-8-18-7-12-2-16-2-6-1h-24l-22 3-16 4-15 5-16 8-12 7-17 13-13 12-10 12-11 16-6 10-14 26-18 32-14 26-8 13-6 11-11 20-8 14-5 10h-2l-1 4-9 17-6 10-6 12-8 13-9 16-5 10-6 10-10 24-5 22-2 17-1 23h-2l-1-13v-23l3-20 5-19 5-13 13-25 13-23 16-29 13-23 13-24 13-23 10-18 14-25 14-26 12-21 11-20 11-16 4-6h2l2-4 2-3h2l2-4 12-11 15-11 13-8 14-7 21-7 21-4z" fill="#01ADFF"/>
<path transform="translate(780,331)" d="m0 0 4 2v2h2l9 16 3 15 1 15v23l-4 23-8 22-9 16-8 16-14 26-6 10-7 14-7 11-3 7-6 12h-2l-2 6-8 14-6 11-14 26-6 10-8 16-12 23-13 23-8 14-11 14-10 11-17 13-21 11-21 6-16 2h-25l-11-1-13-3-16-2h-19l-23 4-13 5-16 8-11 8-3 2h-15l-8-7-5-2-23-12-14-9-7-4-3-4 1-4 2-2 10 6 29 16 7 4v3l5 2 7 4 2 2v3l9-1 13-10 21-10 13-4 22-3 10-1 28 2 5 2 8 1 6 2h27l25-5 10-4 19-10 10-8 11-9 8-10 7-10 12-20 4-8 8-14 8-16 6-11 10-19 10-18 6-11 6-10 7-14 12-22 7-12 4-8 10-19 5-9 9-16 6-12 4-7 6-12 4-9 4-16 2-16v-28l-2-7-2-9-3-5-6-20z" fill="#0194FE"/>
<path transform="translate(608,275)" d="m0 0h27l17 3 18 6 17 9 14 11-1 3-8-4-8-3-9-3-10-4-28-6-15-1-21 4-21 7-14 9-16 12-7 8-14 20-4 9-5 11-5 24-1 15v15l-3 3h-2l-3-15-1-20 2-20 5-17 5-12 6-11 9-12 11-12 11-9 13-8 15-6 19-5z" fill="#0094FE"/>
<path transform="translate(497,167)" d="m0 0h23l8 1 6 2 5 1 17 5v2l5 1 16 8 13 7 10 5v2l4 1 7 3v2l4 1 3 1v2l7 2 8 5 17 9 10 6 6 2v2l7 2 4 2v2l6 2 9 5 10 6 16 8v2l5 2 8 5-3 1-19-11-25-14-23-12-23-13-44-24-27-14-21-8-17-4-6-1h-24l-17 3-17 5-16 8-11 7-10 8-12 11-13 18-11 19-16 30-10 18-13 23-10 18-13 23-17 32-13 23-14 25-15 27-10 19-6 17-3 13-1 8v25l1 16h-2l-2-6-1-11-1-2v-19l2-21 3-9 6-16 10-20 20-35 18-33 6-10 18-33 8-15 5-8 12-22 7-13h2l1-4 7-14 10-18 10-19 10-16 11-14 3-4h2l2-4h2v-2h2v-2l13-10 22-12 13-5 17-4z" fill="#0161B8"/>
<path transform="translate(308,767)" d="m0 0h5 2 13v4l4 2 12 7 6 1 7 4 1 3 8 5h2l1 6h-2v2l-6-2-24-13-16-9h-6l-5 5-13 24-14 24-13 24-12 21-12 22-12 21-14 25-9 15v11l-2 2h-2l-5-1v-19l3-6 3-3 1-4 2-2 1-3 3-3 1-4 3-3 1-4 3-1 2-6v-2l3-2 2-5 2-2 3-9 3-3h2l-1-4 4-4 1-5 2-1v-3l2-2 1-3 3-3 2-6 4-4 5-8 5-10v-3l3-2 2-1 2-7 3-3-2-1 4-4 4-8 1-4 3-1 4-12 3-2 1-5h3l2-5 6-8z" fill="#0075E0"/>
<path transform="translate(731,348)" d="m0 0 2 2 5 17 2 13v20l-3 20-6 17-9 17-10 13-14 14-13 9-10 6-15 6-13 4-13 2h-27l-17-3-15-5-15-8-12-9-11-10 1-2 3 2 4 2 9 6 11 6 11 4 11 3 15 3 6 1 12 1 20-3 15-4 13-6 12-7 9-6h2v-2h2v-2l8-7 5-6h2l2-4 3-3 7-14 6-13 4-14 2-15 2-7-1-5 2-4h-2l-1-7 1-2-2-1v-9l-1-3z" fill="#0074DF"/>
<path transform="translate(699,365)" d="m0 0 1 2 4 1 2 5 3 1 3 10v24l-3 17-6 15-8 11-7 8-13 10-14 7-10 3-12 2h-30l-16-4-8-4-10-9-2-2-1-7 4 1 14 8 12 4 12 2h16l15-3 12-5 12-7 12-11 8-10 8-16 3-12 1-8v-15l-2-11z" fill="#0094FE"/>
<path transform="translate(292,714)" d="m0 0 2 4 1 15-3 16-4 10-13 24-5 8-7 13-5 8-5 10-6 9-6 12-8 13-6 11-8 14-9 15-6 11-8 14-8 13-7 12-6 17-1 9h-1l-1-6v-10l4-15 12-23 12-21 15-26 16-29 13-22 14-25 13-23 12-21 5-15 2-9z" fill="#01ACFF"/>
<path transform="translate(612,304)" d="m0 0h23l2 2 5-1 9 3v2l6 1 6 4 4 2 2 3 3 1 6 8 3 6 3 4-1 2-11-11-13-8-12-5-12-3-7-1h-11l-14 2-12 4-12 6-10 8-7 7-9 14-6 16-2 10v23l4 17 3 9-5-1-4-7v-3h-2v-3h-2v-5l-2-2v-36l4-16 5-12 4-5 2-4 4-4h2l1-3 3-3 4-5 4-3 3 1 3-3 4-3 7-2 4-2 4-1 2 1v-2l8-1h6z" fill="#0074DF"/>
<path transform="translate(287,696)" d="m0 0 5 2v2l2 1 2 3 3 9 1 19-1 10-4 16-14 26-8 13-11 22h-2l-2 5-8 15-6 10-10 18-8 14-14 25-7 10-4 8-8 13-6 10-6 14-5 9v5h-2v-12l6-17 8-14 12-19 6-12 5-8 16-28 10-18 4-6 6-12 6-9 8-15 4-6 5-10 10-17 8-14 4-14 2-11-1-15-2-1-4-18z" fill="#0194FE"/>
<path transform="translate(368,803)" d="m0 0 3 3v11l-8 15-8 14-8 16-10 19-6 11-12 23-9 16-8 16-14 26-13 23-4 4h-7l-6-2v-3l-4-2-14-8 2-1 15 8 8 1 4-2 24-46 12-22 12-23 12-22 16-31 8-14 6-11 6-12 1-6z" fill="#01ADFF"/>
<path transform="translate(372,799)" d="m0 0h2l1 2 1 15-1 5-3 7-6 11-4 6-16 32-6 10-8 16-5 9-8 15-7 14-10 18-6 11-14 26-6 7h-20l-7-6-18-10-9-6-6-3v-2h-2l-1-5 4-1 23 13 3 3 12 7 3 2 1 3 8 1 6-1 12-22 16-29 16-31 12-22 6-10 9-19 9-16 6-11 3-6 8-15v-11l-2-2-2-1z" fill="#0194FF"/>
<path transform="translate(608,275)" d="m0 0h27l17 3 18 6 4 3-3 1-15-5-9-1h-3-2v-2l-2 1h-12l-21 2-13 3-15 5-12 6-11 8-14 12-9 11-9 14-6 13-6 17-1 6h-2v27l-1 3h-2l-1-20 2-20 5-17 5-12 6-11 9-12 11-12 11-9 13-8 15-6 19-5z" fill="#01ACFE"/>
<path transform="translate(311,771)" d="m0 0h14v6l5 1 10 6 12 6 5 3 9 5v2l-5-1-24-13-16-9h-6l-5 5-13 24-14 24-13 24-12 21-12 22-12 21-14 25-9 15-1 8-4-2v-9l3-6 8-13 6-11 13-23 7-12 7-14 5-8 15-27 13-23 6-10 5-10 10-18 6-8z" fill="#0161B9"/>
<path transform="translate(703,384)" d="m0 0 2 4 1 3v13l-2 16-6 15-7 10-9 10-4 2v2l-9 6-16 8-11 3-10 1h-15l-15-3v-3h-6v-2l-6-2 3-2 14 4 7 1h16l15-3 12-5 12-7 12-11 8-10 8-16 3-12z" fill="#01ACFE"/>
<path transform="translate(739,382)" d="m0 0h1v18l-3 20-6 17-9 17-10 13-14 14-13 9-10 6-15 6-13 4-13 2h-27l-16-3 1-2h5 3 2v3l3-2h24l19-3 20-7 18-10 11-8 7-7h2l2-4 9-11 8-14 5-10 4-11 2-6z" fill="#015EB4"/>
<path transform="translate(315,673)" d="m0 0 4 1 6 18 3 15 1 8v16l-1 8-5 5-3-1v-19-4l-1-13v-3l-4-18-2-7v-4h2z" fill="#0074DE"/>
<path transform="translate(614,309)" d="m0 0h16l7 1 2 2 4 1 6 1v2l4 2-9-2-16-3h-11l-14 2-12 4-12 6-10 8-7 7-9 14-6 16-2 10-1 23h-1v-31l1-4h2l-1-3 3-10 6-11 12-15 13-9 14-7 11-3z" fill="#015FB5"/>
<path transform="translate(583,191)" d="m0 0 7 3 10 5v2l4 1 7 3v2l4 1 3 1v2l7 2 8 5 17 9 10 6 6 2v2l7 2 4 2v2l6 2 9 5 10 6 16 8v2l5 2 8 5-3 1-19-11-25-14-23-12-23-13-55-30z" fill="#0169C5"/>
<path transform="translate(583,191)" d="m0 0 7 3 10 5v2l4 1 7 3v2l4 1 3 1v2l7 2 2 4-5-2-34-18-5-3z" fill="#016DCB"/>
<path transform="translate(608,163)" d="m0 0 6 2 24 13 19 10-3 2-19-10-9-5-5-3-11-6z" fill="#01ACFF"/>
<path transform="translate(327,715)" d="m0 0h2v16l-1 8-4 2v-14l1-9z" fill="#0167C0"/>
<path transform="translate(250,638)" d="m0 0 8 6 2 6h3v3l2 1-2 1-6-2-5-6 2-4h-3l-2-4z" fill="#0079E6"/>
<path transform="translate(687,206)" d="m0 0 6 2 16 9 14 8-2 1-9-4v-2l-6-1-7-5-7-3v-2l-5-2z" fill="#01ACFF"/>
<path transform="translate(507,381)" d="m0 0 2 3v21l-1 3h-2l-1-20z" fill="#01A8FE"/>
<path transform="translate(627,216)" d="m0 0 6 2 17 9 4 4-5-1-22-12z" fill="#0166C1"/>
<path transform="translate(706,259)" d="m0 0 6 2 6 3v2l5 2 8 5-3 1-19-11-3-2z" fill="#0168C3"/>
<path transform="translate(546,367)" d="m0 0 1 3-2 10-1 23h-1v-31l1-4z" fill="#015EB3"/>
<path transform="translate(665,194)" d="m0 0 6 2 16 9-2 2-15-8z" fill="#01ACFF"/>
<path transform="translate(684,248)" d="m0 0 7 1 8 5 7 4v2l-6-2-16-9z" fill="#016DCC"/>
<path transform="translate(583,191)" d="m0 0 7 3 8 5-4 1-11-6z" fill="#0169C6"/>
<path transform="translate(612,207)" d="m0 0 6 2v2l7 2 2 4-5-2-10-6z" fill="#016AC8"/>
<path transform="translate(355,793)" d="m0 0 5 2 6 3v2l-5-1-6-4z" fill="#0166BF"/>
<path transform="translate(259,648)" d="m0 0 1 2h3v3l2 1-2 1-6-2 1-4z" fill="#0077E2"/>
<path transform="translate(813,319)" d="m0 0h2l2 5v4h-3l-2-5z" fill="#0076E2"/>
<path transform="translate(731,348)" d="m0 0 2 2 2 8h-3l-2-1z" fill="#0071D8"/>
<path transform="translate(673,287)" d="m0 0 5 1 7 4v2l-5-2-7-3z" fill="#019FFE"/>
</svg>
